<?xml version="1.0" standalone="no"?><!DOCTYPE svg PUBLIC "-//W3C//DTD SVG 1.1//EN" "http://www.w3.org/Graphics/SVG/1.1/DTD/svg11.dtd"><svg t="1711083079344" class="icon" viewBox="0 0 1024 1024" version="1.1" xmlns="http://www.w3.org/2000/svg" p-id="1235" width="200" height="200" xmlns:xlink="http://www.w3.org/1999/xlink"><path d="M654.848 747.008H309.76c-17.92 0-32.256-14.336-32.256-32.256V278.528c0-17.92 14.336-32.256 32.256-32.256h345.088c17.92 0 32.256 14.336 32.256 32.256v436.736c0 17.408-14.336 31.744-32.256 31.744z" fill="#fec591" opacity=".4" p-id="1236"></path><path d="M701.44 100.864H264.704C186.368 100.864 122.88 164.352 122.88 242.688v538.624c0 78.336 63.488 141.824 141.824 141.824H701.44c78.336 0 141.824-63.488 141.824-141.824V242.688c0-78.336-63.488-141.824-141.824-141.824z m38.912 646.144c0 43.008-34.816 77.824-77.824 77.824H482.816v0.512h-179.2c-43.008 0-77.824-34.816-77.824-77.824V276.992c0-43.008 34.816-77.824 77.824-77.824h179.712v-0.512h179.2c43.008 0 77.824 34.816 77.824 77.824v470.528z" fill="#fec591" p-id="1237"></path><path d="M615.936 766.464H334.848l15.36-102.912h281.088zM663.04 338.944l-56.32-74.24-161.792 171.52-62.464-76.288-81.408 46.592 92.16 112.128 45.056 59.392z" fill="#fec591" p-id="1238"></path></svg>